<?xml version="1.0" encoding="utf-8"?>
<!-- Generator: Adobe Illustrator 25.2.1, SVG Export Plug-In . SVG Version: 6.00 Build 0)  -->
<svg version="1.1" xmlns="http://www.w3.org/2000/svg" xmlns:xlink="http://www.w3.org/1999/xlink" x="0px" y="0px"
	 viewBox="0 0 500 500" style="enable-background:new 0 0 500 500;" xml:space="preserve">
<style type="text/css">
	.st0{fill:#1D1D1B;}
	.st1{fill:none;stroke:#1D1D1B;stroke-width:4;stroke-miterlimit:10;stroke-dasharray:11.9919,10.9925;}
	.st2{font-family:'FranklinGothic-Medium';}
	.st3{font-size:72px;}
	.st4{font-family:'FranklinGothic-MediumItalic';}
	.st5{font-size:47.0238px;}
	.st6{letter-spacing:14;}
</style>
<g id="Camada_1">
	<g>
		<path class="st0" d="M242.64,118.25l4.33,0l13.82-18.77c3.65,0.05,7.34,0.05,11.1-0.07c4.44-0.21,8.03-1.94,8.03-3.79
			c0-1.85-3.59-3.57-8.04-3.78c-3.76-0.11-7.45-0.11-11.1-0.05l-13.85-18.75l-4.33,0l7.87,19.06c-5.85,0.24-11.65,0.54-17.48,0.76
			l-3.22-5.8l-2.86,0l1.51,8.6l-1.49,8.6l2.86,0l3.21-5.8c5.83,0.21,11.63,0.49,17.48,0.73L242.64,118.25z"/>
		<g>
			
				<rect x="253.23" y="80.23" transform="matrix(7.695240e-04 1 -1 7.695240e-04 337.9551 -171.8718)" class="st0" width="3.51" height="5.89"/>
			
				<rect x="253.24" y="105.16" transform="matrix(7.695240e-04 1 -1 7.695240e-04 362.9119 -146.9726)" class="st0" width="3.51" height="5.89"/>
		</g>
	</g>
	<g>
		<circle class="st1" cx="253.42" cy="198.07" r="102.42"/>
	</g>
</g>
<g id="Camada_2">
	<g>
		<path d="M253.42,105.91c25.45,0,48.49,10.32,65.17,26.99c16.68,16.68,26.99,39.72,26.99,65.17c0,25.45-10.32,48.49-26.99,65.17
			c-16.68,16.68-39.72,26.99-65.17,26.99c-25.45,0-48.49-10.32-65.17-26.99c-16.68-16.68-26.99-39.72-26.99-65.17
			c0-25.45,10.32-48.49,26.99-65.17C204.93,116.23,227.97,105.91,253.42,105.91L253.42,105.91L253.42,105.91z M314.51,136.98
			c-15.64-15.64-37.24-25.31-61.09-25.31s-45.46,9.67-61.09,25.31c-15.63,15.63-25.31,37.24-25.31,61.09s9.67,45.46,25.31,61.09
			c15.64,15.64,37.24,25.31,61.09,25.31s45.46-9.67,61.09-25.31c15.64-15.64,25.31-37.24,25.31-61.09S330.15,152.61,314.51,136.98
			L314.51,136.98z"/>
		<path d="M251.76,105.91c10.03,0,18.82,10.73,24.92,28.08c5.79,16.45,9.37,39.11,9.37,64.08c0,24.96-3.58,47.62-9.37,64.08
			c-6.11,17.35-14.9,28.08-24.92,28.08c-10.03,0-18.82-10.73-24.92-28.08c-5.79-16.45-9.37-39.11-9.37-64.08
			c0-24.96,3.58-47.62,9.37-64.08C232.94,116.64,241.73,105.91,251.76,105.91L251.76,105.91L251.76,105.91z M271.26,135.89
			c-5.26-14.96-12.18-24.21-19.5-24.21c-7.32,0-14.24,9.25-19.5,24.21c-5.58,15.86-9.03,37.84-9.03,62.19s3.45,46.33,9.03,62.19
			c5.26,14.96,12.18,24.21,19.5,24.21c7.32,0,14.24-9.25,19.5-24.21c5.58-15.86,9.03-37.84,9.03-62.19S276.84,151.75,271.26,135.89
			L271.26,135.89z"/>
		<path d="M251.76,105.91c19.66,0,37.41,10.43,50.22,27.3c12.64,16.64,20.45,39.58,20.45,64.86s-7.81,48.22-20.45,64.86
			c-12.8,16.87-30.56,27.3-50.22,27.3c-19.66,0-37.41-10.43-50.22-27.3c-12.64-16.64-20.45-39.58-20.45-64.86
			c0-25.29,7.82-48.22,20.45-64.86C214.35,116.34,232.1,105.91,251.76,105.91L251.76,105.91L251.76,105.91z M297.41,136.67
			c-11.73-15.45-27.87-25-45.65-25c-17.78,0-33.92,9.55-45.65,25c-11.9,15.67-19.26,37.38-19.26,61.4s7.36,45.73,19.26,61.4
			c11.73,15.45,27.87,25,45.65,25c17.78,0,33.92-9.55,45.65-25c11.9-15.67,19.26-37.38,19.26-61.4S309.31,152.34,297.41,136.67
			L297.41,136.67z"/>
		<path d="M182.47,148.05c-1.35-0.83-3.12-0.41-3.95,0.93c-0.83,1.35-0.41,3.12,0.93,3.95c17.04,10.53,45.55,15.8,73.96,15.8
			s56.92-5.27,73.96-15.8c1.35-0.83,1.77-2.6,0.93-3.95c-0.83-1.35-2.6-1.77-3.95-0.93c-16.1,9.95-43.47,14.92-70.95,14.92
			C225.94,162.97,198.57,158,182.47,148.05L182.47,148.05z"/>
		<path d="M179.46,243.21c-1.35,0.83-1.77,2.6-0.93,3.95c0.83,1.35,2.6,1.77,3.95,0.93c16.1-9.95,43.47-14.92,70.95-14.92
			c27.47,0,54.85,4.97,70.95,14.92c1.35,0.83,3.12,0.41,3.95-0.93c0.83-1.35,0.41-3.12-0.93-3.95
			c-17.04-10.53-45.55-15.8-73.96-15.8S196.5,232.68,179.46,243.21L179.46,243.21z"/>
		<path d="M164.14,195.19c-1.59,0-2.88,1.29-2.88,2.88c0,1.59,1.29,2.88,2.88,2.88H342.7c1.59,0,2.88-1.29,2.88-2.88
			c0-1.59-1.29-2.88-2.88-2.88H164.14L164.14,195.19z"/>
	</g>
</g>
<g id="Camada_3">
	<text transform="matrix(1 0 0 1 109.6618 367.0226)" class="st2 st3">CENTRAL</text>
	<text transform="matrix(1 0 0 1 169.2285 405.6339)" class="st4 st5 st6">TECH</text>
</g>
</svg>
